# xmcd CD database file
#
# Track frame offsets:
#	150
#	13546
#	25436
#	32499
#	42379
#	55705
#	71349
#	90026
#	109654
#	118407
#	132553
#	148742
#	158955
#	174634
#	190504
#	203528
#	212900
#	221751
#	234467
#	252797
#	261958
#	274949
#	289532
#	299621
#	312733
#	326645
#	337888
#
# Disc length: 4670 seconds
#
# Revision: 0
# Processed by: cddbd v1.4PL0 Copyright (c) Steve Scherf et al.
# Submitted via: CDex 1.50
#
DISCID=9b123c1b
DTITLE=gerry lockran - blues vendetta - the essential
DYEAR=1900
DGENRE=Blues
TTITLE0=goin down the road
TTITLE1=the riddle song
TTITLE2=jason't blues
TTITLE3=you don't learn that at school
TTITLE4=get back
TTITLE5=autonmechanic blues
TTITLE6=trouble in mind
TTITLE7=summertime
TTITLE8=guitar boogie
TTITLE9=cocaine blues
TTITLE10=work song
TTITLE11=goodmornin' blues
TTITLE12=careless love
TTITLE13=hoochie-coochie man
TTITLE14=nobody knows you when you're down and out
TTITLE15=woman lover
TTITLE16=bottom blues
TTITLE17=sittin' pretty
TTITLE18=st.james' infirmary blues
TTITLE19=evil-hearted man
TTITLE20=i'm going back to see my baby
TTITLE21=don't say that you're sorry
TTITLE22=that's all right mama
TTITLE23=no letter today
TTITLE24=going down to memphis
TTITLE25=i'll never stand in your way
TTITLE26=i know more about this old heart
EXTD=
EXTT0=
EXTT1=
EXTT2=
EXTT3=
EXTT4=
EXTT5=
EXTT6=
EXTT7=
EXTT8=
EXTT9=
EXTT10=
EXTT11=
EXTT12=
EXTT13=
EXTT14=
EXTT15=
EXTT16=
EXTT17=
EXTT18=
EXTT19=
EXTT20=
EXTT21=
EXTT22=
EXTT23=
EXTT24=
EXTT25=
EXTT26=
PLAYORDER=
